{"title":"Transformers.Age.Of.Extinction.2014.AVI.BRRip.720p.DivX.NLSub.{T","uid":11130243,"size":8437326152,"categoryP":"video","categoryS":"hd___movies","magnet":"?xt=urn:btih:41c5aaf85d3436895435475cccb069a467c1c95f&amp;dn=Transformers.Age.Of.Extinction.2014.AVI.BRRip.720p.DivX.NLSub.%7BT&amp;tr=udp%3A%2F%2Ftracker.openbittorrent.com%3A80&amp;tr=udp%3A%2F%2Fopen.demonii.com%3A1337&amp;tr=udp%3A%2F%2Ftracker.coppersurfer.tk%3A6969&amp;tr=udp%3A%2F%2Fexodus.desync.com%3A6969","seeders":4,"leechers":1,"uploader":"HOLLANDmovies","files":-1,"time":1412033196,"description":" &lt;a href=&quot;http://www.imdb.com/title/tt2109248&quot; rel=&quot;nofollow&quot; target=&quot;_NEW&quot;&gt;http://www.imdb.com/title/tt2109248&lt;/a&gt;\n\nTorrent Description\nTransformers: Age of Extinction DivX 720p \n\nINFO\n\nTransformers: Age of Extinction (2014)\n165 min - Action | Adventure | Sci-Fi\n\nA mechanic and his family join the Autobots as they are targeted by a bounty hunter from another world.\n\nDirector: Michael Bay\nWriter: Ehren Kruger\nStars: Mark Wahlberg, Nicola Peltz, Jack Reynor \n &lt;a href=&quot;\nhttp://www.ephotobay.com/image/transformers-age-of-extinction-2014-avi-brrip-72.jpg&quot; rel=&quot;nofollow&quot; target=&quot;_NEW&quot;&gt;\nhttp://www.ephotobay.com/image/transformers-age-of-extinction-2014-avi-brrip-72.jpg&lt;/a&gt; &lt;a href=&quot;\nhttp://www.ephotobay.com/image/transformers-age-of-extinction-2014-avi-brrip--3.jpg&quot; rel=&quot;nofollow&quot; target=&quot;_NEW&quot;&gt;\nhttp://www.ephotobay.com/image/transformers-age-of-extinction-2014-avi-brrip--3.jpg&lt;/a&gt; &lt;a href=&quot;\nhttp://www.ephotobay.com/image/transformers-age-of-extinction-2014-avi-brrip--4.jpg&quot; rel=&quot;nofollow&quot; target=&quot;_NEW&quot;&gt;\nhttp://www.ephotobay.com/image/transformers-age-of-extinction-2014-avi-brrip--4.jpg&lt;/a&gt;\n\nGENERAL:\n\nComplete name : Transformers.Age.Of.Extinction.2014.AVI.BRRip.720p.DivX.NLSub.{Th3Sp3cialist}.avi\nFormat : AVI\nFormat/Info : Audio Video Interleave\nFormat profile : OpenDML\nFile size : 7.84 GiB\nDuration : 2h 45mn\nOverall bit rate : 6 796 Kbps\n\nVideo\nID : 0\nSource :\nFormat : MPEG-4 Visual\nFormat profile : Advanced Simple@L5\nFormat settings, BVOP : No\nFormat settings, QPel : No\nFormat settings, GMC : 3 warppoints\nFormat settings, Matrix : Default (H.263)\nCodec ID : XVID\nCodec ID/Hint : XviD\nDuration : 2h 45mn\nBit rate : 6 468 Kbps\nWidth : 1 280 pixels\nHeight : 720 pixels\nDisplay aspect ratio : 16:9\nFrame rate : 23.976 fps\nColor space : YUV\nChroma subsampling : 4:2:0\nBit depth : 8 bits\nScan type : Progressive\nCompression mode : Lossy\nBits/(Pixel*Frame) : 0.293\nStream size : 7.46 GiB (95%)\nWriting library : XviD 62\n\nAudio\nID : 1\nFormat : MPEG Audio\nFormat version : Version 1\nFormat profile : Layer 3\nCodec ID : 55\nCodec ID/Hint : MP3\nDuration : 2h 45mn\nBit rate mode : Constant\nBit rate : 320 Kbps\nChannel(s) : 2 channels\nSampling rate : 48.0 KHz\nCompression mode : Lossy\nStream size : 378 MiB (5%)\nAlignment : Aligned on interleaves\nInterleave, duration : 42 ms (1.00 video frame)","torrent":{"xt":"urn:btih:41c5aaf85d3436895435475cccb069a467c1c95f","amp;dn":"Transformers.Age.Of.Extinction.2014.AVI.BRRip.720p.DivX.NLSub.%7BT","amp;tr":["udp%3A%2F%2Ftracker.openbittorrent.com%3A80","udp%3A%2F%2Fopen.demonii.com%3A1337","udp%3A%2F%2Ftracker.coppersurfer.tk%3A6969","udp%3A%2F%2Fexodus.desync.com%3A6969"],"infoHash":"41c5aaf85d3436895435475cccb069a467c1c95f","infoHashBuffer":{"type":"Buffer","data":[65,197,170,248,93,52,54,137,84,53,71,92,204,176,105,164,103,193,201,95]},"announce":[],"urlList":[]}}